<svg id="svg" version="1.1" xmlns="http://www.w3.org/2000/svg" xmlns:xlink="http://www.w3.org/1999/xlink" width="400" height="400" viewBox="0, 0, 400,400"><g id="svgg"><path id="path0" d="M188.281 119.742 C 150.689 124.474,112.627 146.987,79.435 184.122 C 66.718 198.350,65.044 201.741,68.071 207.137 C 71.622 213.465,95.630 238.954,107.031 248.500 C 180.104 309.680,261.581 296.512,328.565 212.695 C 336.394 202.898,336.261 202.248,323.345 187.210 C 281.380 138.351,232.885 114.127,188.281 119.742 M206.836 141.022 C 225.863 142.377,242.450 148.782,263.477 162.892 C 274.958 170.596,299.508 193.191,305.421 201.496 L 306.251 202.661 304.410 204.944 C 292.966 219.130,274.048 236.195,259.059 245.851 C 217.400 272.689,177.223 271.053,134.920 240.798 C 123.439 232.587,103.391 214.712,95.614 205.752 L 93.656 203.497 95.945 200.479 C 100.370 194.645,115.242 180.398,125.781 171.896 C 150.486 151.967,173.192 142.092,197.070 140.891 C 198.359 140.826,199.854 140.741,200.391 140.702 C 200.928 140.664,203.828 140.807,206.836 141.022 M192.773 157.651 C 160.539 163.325,143.626 196.031,158.303 224.308 C 176.758 259.863,232.575 256.067,245.775 218.359 C 257.497 184.871,228.277 151.402,192.773 157.651 M206.042 186.981 C 215.042 190.140,219.251 200.459,215.003 208.951 C 207.733 223.482,185.890 218.977,184.868 202.734 C 184.174 191.709,195.502 183.282,206.042 186.981 " stroke="none" fill="#14232f" fill-rule="evenodd"></path><path id="path1" d="M0.000 200.000 L 0.000 400.000 200.000 400.000 L 400.000 400.000 400.000 200.000 L 400.000 0.000 200.000 0.000 L 0.000 0.000 0.000 200.000 M213.477 119.530 C 253.017 123.991,292.135 149.085,328.839 193.534 C 336.619 202.955,336.112 204.820,321.141 221.875 C 257.511 294.362,185.790 306.471,116.797 256.376 C 98.937 243.408,67.609 210.564,66.585 203.734 C 65.897 199.147,73.017 189.892,90.497 172.650 C 124.667 138.945,157.635 121.973,194.727 118.990 C 197.743 118.747,209.554 119.088,213.477 119.530 M192.773 141.289 C 167.811 143.557,142.728 156.389,115.625 180.757 C 105.610 189.761,94.185 201.817,94.151 203.415 C 94.111 205.267,114.660 224.874,126.658 234.432 C 178.045 275.370,226.118 274.734,276.745 232.445 C 288.596 222.545,305.859 204.755,305.859 202.442 C 305.859 201.335,293.976 188.799,286.133 181.632 C 252.747 151.125,223.520 138.495,192.773 141.289 M209.555 157.659 C 240.740 162.758,257.735 196.033,243.433 223.990 C 226.045 257.978,174.123 257.306,157.410 222.877 C 142.900 192.985,163.454 159.765,198.242 156.884 C 200.661 156.683,205.697 157.028,209.555 157.659 M196.289 186.854 C 178.443 192.764,182.934 218.512,201.630 217.477 C 217.895 216.576,222.164 194.660,207.422 187.744 C 204.450 186.349,199.103 185.922,196.289 186.854 " stroke="none" fill="#fbfaf6" fill-rule="evenodd"></path><path id="path2" d="M197.168 119.026 C 197.651 119.119,198.442 119.119,198.926 119.026 C 199.409 118.933,199.014 118.856,198.047 118.856 C 197.080 118.856,196.685 118.933,197.168 119.026 M203.228 119.030 C 203.822 119.120,204.701 119.118,205.181 119.025 C 205.662 118.932,205.176 118.859,204.102 118.862 C 203.027 118.865,202.634 118.941,203.228 119.030 M200.298 156.917 C 200.783 157.010,201.487 157.007,201.860 156.909 C 202.233 156.811,201.836 156.735,200.977 156.739 C 200.117 156.743,199.812 156.823,200.298 156.917 M234.375 170.044 C 234.375 170.111,234.946 170.683,235.645 171.314 L 236.914 172.461 235.767 171.191 C 234.697 170.008,234.375 169.742,234.375 170.044 M106.427 189.160 L 104.883 190.820 106.543 189.276 C 108.087 187.840,108.383 187.500,108.087 187.500 C 108.023 187.500,107.276 188.247,106.427 189.160 M102.911 192.676 L 101.367 194.336 103.027 192.792 C 104.571 191.356,104.867 191.016,104.571 191.016 C 104.508 191.016,103.761 191.763,102.911 192.676 M216.505 202.148 C 216.509 203.008,216.589 203.313,216.683 202.827 C 216.776 202.342,216.772 201.638,216.675 201.265 C 216.577 200.892,216.500 201.289,216.505 202.148 M248.549 202.930 C 248.552 204.004,248.628 204.397,248.718 203.803 C 248.808 203.209,248.805 202.331,248.712 201.850 C 248.620 201.370,248.546 201.855,248.549 202.930 M202.447 286.999 C 203.041 287.089,203.919 287.086,204.400 286.994 C 204.880 286.901,204.395 286.828,203.320 286.830 C 202.246 286.833,201.853 286.909,202.447 286.999 " stroke="none" fill="#9ba2a7" fill-rule="evenodd"></path><path id="path3" d="M200.298 119.026 C 200.783 119.120,201.487 119.116,201.860 119.018 C 202.233 118.921,201.836 118.844,200.977 118.849 C 200.117 118.853,199.812 118.933,200.298 119.026 " stroke="none" fill="#7c7c86" fill-rule="evenodd"></path><path id="path4" d="M200.300 140.908 C 201.002 140.995,202.057 140.993,202.644 140.904 C 203.231 140.815,202.656 140.744,201.367 140.746 C 200.078 140.748,199.598 140.821,200.300 140.908 M152.825 204.688 C 152.825 205.439,152.905 205.747,153.004 205.371 C 153.102 204.995,153.102 204.380,153.004 204.004 C 152.905 203.628,152.825 203.936,152.825 204.688 M200.098 217.847 C 200.474 217.946,201.089 217.946,201.465 217.847 C 201.841 217.749,201.533 217.669,200.781 217.669 C 200.029 217.669,199.722 217.749,200.098 217.847 M199.907 265.120 C 200.393 265.213,201.096 265.210,201.469 265.112 C 201.843 265.014,201.445 264.938,200.586 264.942 C 199.727 264.947,199.421 265.027,199.907 265.120 " stroke="none" fill="#747c80" fill-rule="evenodd"></path></g></svg>